<?xml version="1.0" encoding="utf-8"?>
<!-- Generator: Adobe Illustrator 27.5.0, SVG Export Plug-In . SVG Version: 6.00 Build 0)  -->
<svg version="1.1" xmlns="http://www.w3.org/2000/svg" xmlns:xlink="http://www.w3.org/1999/xlink" x="0px" y="0px"
	 viewBox="0 0 500 500" style="enable-background:new 0 0 500 500;" xml:space="preserve">
<g id="Background_Complete">
	<g>
		<rect y="382.398" style="fill:#EBEBEB;" width="500" height="0.25"/>
		<rect x="416.779" y="398.494" style="fill:#EBEBEB;" width="33.122" height="0.25"/>
		<rect x="260.335" y="395.36" style="fill:#EBEBEB;" width="12.887" height="0.25"/>
		<rect x="322.527" y="396.416" style="fill:#EBEBEB;" width="27.14" height="0.25"/>
		<rect x="359.667" y="389.208" style="fill:#EBEBEB;" width="56.111" height="0.25"/>
		<rect x="52.459" y="400.777" style="fill:#EBEBEB;" width="26.527" height="0.25"/>
		<rect x="87.889" y="400.777" style="fill:#EBEBEB;" width="23" height="0.25"/>
		<rect x="131" y="395.235" style="fill:#EBEBEB;" width="60.814" height="0.25"/>
		<path style="fill:#EBEBEB;" d="M237.014,337.799H43.915c-3.147,0-5.708-2.561-5.708-5.708V60.66c0-3.147,2.561-5.708,5.708-5.708
			h193.099c3.146,0,5.707,2.561,5.707,5.708v271.432C242.721,335.239,240.16,337.799,237.014,337.799z M43.915,55.202
			c-3.01,0-5.458,2.448-5.458,5.458v271.432c0,3.01,2.448,5.458,5.458,5.458h193.099c3.009,0,5.457-2.448,5.457-5.458V60.66
			c0-3.009-2.448-5.458-5.457-5.458H43.915z"/>
		<path style="fill:#EBEBEB;" d="M453.31,337.799H260.212c-3.147,0-5.707-2.561-5.707-5.708V60.66c0-3.147,2.561-5.708,5.707-5.708
			H453.31c3.148,0,5.708,2.561,5.708,5.708v271.432C459.019,335.239,456.458,337.799,453.31,337.799z M260.212,55.202
			c-3.009,0-5.457,2.448-5.457,5.458v271.432c0,3.01,2.448,5.458,5.457,5.458H453.31c3.01,0,5.458-2.448,5.458-5.458V60.66
			c0-3.009-2.448-5.458-5.458-5.458H260.212z"/>
	</g>
	<g>
		<g>
			<path style="fill:#E6E6E6;" d="M264.905,296.391c-2.003-5.75-17.796,2.069-24.205,11.598c-4.268,6.346-6.876,13.12-8.094,22.219
				c0.146-10.382,0.312-21.537,0.474-32.065c1.296-2.625,4.256-8.677,6.384-13.472c7.103-16,23.993-21.958,29.827-32.06
				c7.645-13.237,7.601-33.092,1.093-40.257c-5.656-6.226-24.386,35.875-26.495,40.579c-7.256,16.179-9.365,28.185-10.726,39.817
				c0.155-9.887,0.303-18.965,0.424-25.97c0.397-22.846,0.892-30.195,1.119-32.456c0.782-1.104,1.705-2.391,2.242-3.082
				c4.533-5.835,14.589-12.782,19.615-21.264c7.338-12.386,6.153-27.209,1.006-32.729c-5.382-5.771-14.897,7.869-19.948,21.385
				c-5.051,13.516-2.893,26.452-4.309,37.676c-0.296,2.202-0.601,10.564-0.887,22.162c-1.532-12.48-4.585-20.841-10.242-28.632
				c-6.958-9.583-12.964-21.252-18.697-19.744c-5.733,1.508-2.647,16.948,1.889,27.788c4.039,9.653,23.965,19.282,26.9,27.043
				c-0.346,15.722-0.655,35.64-0.874,54.184c-1.571-9.579-0.491-10.383-6.928-25.048c-3.827-8.719-19.516-19.47-21.387-13.48
				c-1.836,5.879,0.973,17.312,6.896,25.242c4.778,6.397,15.379,6.389,17.832,10.358c0.572,0.926,2.465,4.476,3.546,6.517
				c-0.256,22.641-0.371,42.625-0.244,49.439l1.028,0.069c-0.049-1.759,0.075-13.277,0.277-28.518
				c2.574-8.11,19.904-12.844,25.258-21.277C263.282,313.587,267.308,303.288,264.905,296.391z"/>
			<g>
				<path style="fill:#F0F0F0;" d="M248.609,382.398h-33.263c-1.817,0-3.383-1.28-3.745-3.061l-2.361-11.641h45.474l-2.361,11.641
					C251.993,381.118,250.427,382.398,248.609,382.398z"/>
				<path style="fill:#F0F0F0;" d="M255.667,372.208H208.29c-1.135,0-2.089-0.853-2.216-1.981l-0.969-8.606
					c-0.149-1.322,0.886-2.48,2.216-2.48h49.314c1.331,0,2.365,1.158,2.216,2.48l-0.969,8.606
					C257.756,371.356,256.802,372.208,255.667,372.208z"/>
			</g>
		</g>
		<g>
			<g>
				
					<rect x="400.763" y="242.322" transform="matrix(-1 -1.224647e-16 1.224647e-16 -1 833.376 620.5536)" style="fill:#F0F0F0;" width="31.851" height="135.909"/>
				
					<rect x="265.453" y="378.231" transform="matrix(-1 -1.224647e-16 1.224647e-16 -1 695.9217 760.6293)" style="fill:#F0F0F0;" width="165.015" height="4.167"/>
				<rect x="263.308" y="242.322" style="fill:#F5F5F5;" width="137.454" height="135.909"/>
				<rect x="275.831" y="295.888" style="fill:#F0F0F0;" width="112.41" height="28.778"/>
				<rect x="275.831" y="332.928" style="fill:#F0F0F0;" width="112.41" height="28.778"/>
				<path style="fill:#F5F5F5;" d="M319.416,300.853h25.239c1.708,0,3.106-1.398,3.106-3.106v0c0-1.708-1.398-3.106-3.106-3.106
					h-25.239c-1.708,0-3.106,1.398-3.106,3.106v0C316.31,299.455,317.708,300.853,319.416,300.853z"/>
				<rect x="275.831" y="258.847" style="fill:#F0F0F0;" width="112.41" height="28.778"/>
				<path style="fill:#F5F5F5;" d="M319.416,263.813h25.239c1.708,0,3.106-1.398,3.106-3.106l0,0c0-1.708-1.398-3.106-3.106-3.106
					h-25.239c-1.708,0-3.106,1.398-3.106,3.106l0,0C316.31,262.415,317.708,263.813,319.416,263.813z"/>
				<path style="fill:#F5F5F5;" d="M319.416,337.893h25.239c1.708,0,3.106-1.398,3.106-3.106l0,0c0-1.708-1.398-3.106-3.106-3.106
					h-25.239c-1.708,0-3.106,1.398-3.106,3.106l0,0C316.31,336.496,317.708,337.893,319.416,337.893z"/>
			</g>
			
				<rect x="260.482" y="238.445" transform="matrix(-1 -1.224647e-16 1.224647e-16 -1 661.2444 480.7674)" style="fill:#F0F0F0;" width="140.281" height="3.877"/>
			<rect x="400.763" y="238.445" style="fill:#E6E6E6;" width="34.884" height="3.877"/>
		</g>
		<g>
			<g>
				
					<rect x="147.419" y="178.872" transform="matrix(-1 -1.224647e-16 1.224647e-16 -1 326.3042 561.2698)" style="fill:#E0E0E0;" width="31.467" height="203.526"/>
				<polygon style="fill:#E6E6E6;" points="67.212,382.398 172.582,382.398 183.651,131.885 78.28,131.885 				"/>
				<polygon style="fill:#F0F0F0;" points="51.84,382.398 168.395,382.398 179.464,131.885 62.909,131.885 				"/>
				<polygon style="fill:#FFFFFF;" points="156.986,370.117 166.31,144.166 74.318,144.166 64.994,370.117 				"/>
				<polygon style="fill:#FAFAFA;" points="117.459,370.117 148.728,144.166 138.917,144.166 107.649,370.117 				"/>
				<polygon style="fill:#FAFAFA;" points="103.491,370.117 134.76,144.166 118.032,144.166 86.763,370.117 				"/>
			</g>
		</g>
		<g>
			<g>
				<g>
					
						<rect x="293.464" y="80.821" transform="matrix(-1 -1.224647e-16 1.224647e-16 -1 714.4595 280.9377)" style="fill:#E6E6E6;" width="127.532" height="119.296"/>
					
						<rect x="289.506" y="80.821" transform="matrix(-1 -1.224647e-16 1.224647e-16 -1 708.6521 280.9377)" style="fill:#F5F5F5;" width="129.64" height="119.296"/>
					
						<rect x="293.464" y="200.117" transform="matrix(-1 -1.224647e-16 1.224647e-16 -1 714.4595 405.1166)" style="fill:#E6E6E6;" width="127.532" height="4.883"/>
					
						<rect x="285.954" y="200.117" transform="matrix(-1 -1.224647e-16 1.224647e-16 -1 692.887 405.1166)" style="fill:#F5F5F5;" width="120.979" height="4.883"/>
					
						<rect x="302.07" y="81.19" transform="matrix(-1.836970e-16 1 -1 -1.836970e-16 494.795 -213.8573)" style="fill:#FAFAFA;" width="104.512" height="118.558"/>
					
						<rect x="243.186" y="140.074" transform="matrix(-1.836970e-16 1 -1 -1.836970e-16 435.9109 -154.9732)" style="fill:#E6E6E6;" width="104.512" height="0.79"/>
					<polygon style="fill:#FFFFFF;" points="393.944,192.725 373.445,88.213 346.572,88.213 367.072,192.725 					"/>
					<polygon style="fill:#FFFFFF;" points="362.723,192.725 342.224,88.213 330.088,88.213 350.587,192.725 					"/>
				</g>
			</g>
			<path style="fill:#EBEBEB;" d="M409.642,187.054V76.716c0-0.336-0.275-0.61-0.61-0.61h-0.048c-0.336,0-0.61,0.275-0.61,0.61
				v110.338c0,0.336,0.275,0.61,0.61,0.61h0.048C409.368,187.664,409.642,187.39,409.642,187.054z"/>
			
				<rect x="286.599" y="76.106" transform="matrix(-1 -1.224647e-16 1.224647e-16 -1 709.7463 170.4708)" style="opacity:0.5;fill:#E6E6E6;" width="136.548" height="18.259"/>
			
				<rect x="286.599" y="76.106" transform="matrix(-1 -1.224647e-16 1.224647e-16 -1 709.7463 154.4806)" style="fill:#E0E0E0;" width="136.548" height="2.269"/>
			<path style="fill:#EBEBEB;" d="M286.824,77.101h136.098c0.479,0,0.87-0.392,0.87-0.87v-0.25c0-0.479-0.392-0.87-0.87-0.87
				H286.824c-0.479,0-0.87,0.392-0.87,0.87v0.25C285.954,76.71,286.346,77.101,286.824,77.101z"/>
			<path style="fill:#FFFFFF;" d="M286.43,94.84h136.887c0.262,0,0.476-0.214,0.476-0.476l0,0c0-0.262-0.214-0.476-0.476-0.476
				H286.43c-0.262,0-0.476,0.214-0.476,0.476l0,0C285.954,94.626,286.168,94.84,286.43,94.84z"/>
		</g>
	</g>
</g>
<g id="Background_Simple" style="display:none;">
	<g style="display:inline;">
		<path style="fill:#407BFF;" d="M69.792,207.962C49.187,322.4,187.003,249.314,231.47,258.35
			c31.905,6.483,63.822,66.455,107.206,68.103c45.592,1.732,80.373-42.229,85.923-81.802
			c8.386-59.796-75.178-178.644-148.538-167.078c-55.636,8.772-47.167,87.543-99.19,103.946
			C144.163,191.831,81.012,145.66,69.792,207.962z"/>
		<path style="opacity:0.9;fill:#FFFFFF;" d="M69.792,207.962C49.187,322.4,187.003,249.314,231.47,258.35
			c31.905,6.483,63.822,66.455,107.206,68.103c45.592,1.732,80.373-42.229,85.923-81.802
			c8.386-59.796-75.178-178.644-148.538-167.078c-55.636,8.772-47.167,87.543-99.19,103.946
			C144.163,191.831,81.012,145.66,69.792,207.962z"/>
	</g>
</g>
<g id="Shadow_1_">
	<ellipse id="_x3C_Path_x3E__80_" style="fill:#F5F5F5;" cx="250" cy="416.238" rx="193.889" ry="11.323"/>
</g>
<g id="Folder">
	<g>
		
			<rect x="64.733" y="272.086" transform="matrix(0.9932 -0.1162 0.1162 0.9932 -32.0674 9.4739)" style="fill:#407BFF;" width="1.016" height="15.501"/>
		
			<rect x="66.756" y="293.23" transform="matrix(0.9932 -0.1162 0.1162 0.9932 -34.0654 9.8267)" style="fill:#407BFF;" width="1.016" height="7.817"/>
		<path style="fill:#407BFF;" d="M134.587,240.688l-1.2-3.364c-1.701-4.769-6.47-7.732-11.499-7.144l-47.791,5.59
			c-5.962,0.697-10.229,6.095-9.532,12.057L78.169,364.13c0.478,4.088,4.18,7.015,8.268,6.537l170.989-19.999
			c4.088-0.478,7.015-4.18,6.537-8.268l-11.759-100.54c-0.478-4.088-4.18-7.015-8.268-6.537l-99.291,11.613
			C140.246,247.45,136.075,244.859,134.587,240.688z"/>
		<g>
			<g>
				
					<rect x="92.223" y="194.761" transform="matrix(0.9807 -0.1955 0.1955 0.9807 -43.174 27.8974)" style="fill:#407BFF;" width="55.09" height="75.897"/>
				
					<rect x="92.223" y="194.761" transform="matrix(0.9807 -0.1955 0.1955 0.9807 -43.174 27.8974)" style="opacity:0.7;fill:#FFFFFF;" width="55.09" height="75.897"/>
			</g>
			<g style="opacity:0.4;">
				<path style="fill:#407BFF;" d="M132.149,208.023l-33.281,6.633c-1.614,0.322-3.183-0.726-3.505-2.34l0,0
					c-0.322-1.614,0.726-3.183,2.34-3.505l33.281-6.633c1.614-0.322,3.183,0.726,3.505,2.34l0,0
					C134.811,206.132,133.763,207.701,132.149,208.023z"/>
				<path style="fill:#407BFF;" d="M134.602,220.33l-33.281,6.633c-1.614,0.322-3.183-0.726-3.505-2.34l0,0
					c-0.322-1.614,0.726-3.183,2.34-3.505l33.281-6.633c1.614-0.322,3.183,0.726,3.505,2.34v0
					C137.263,218.44,136.216,220.009,134.602,220.33z"/>
				<path style="fill:#407BFF;" d="M137.055,232.638l-33.281,6.633c-1.614,0.322-3.183-0.726-3.505-2.34l0,0
					c-0.322-1.614,0.726-3.183,2.34-3.505l33.281-6.633c1.614-0.322,3.183,0.726,3.505,2.34l0,0
					C139.716,230.747,138.669,232.316,137.055,232.638z"/>
				<path style="fill:#407BFF;" d="M139.508,244.945l-33.281,6.633c-1.614,0.322-3.183-0.726-3.505-2.34v0
					c-0.322-1.614,0.726-3.183,2.34-3.505l33.281-6.633c1.614-0.322,3.183,0.726,3.505,2.34l0,0
					C142.169,243.055,141.122,244.624,139.508,244.945z"/>
				<path style="fill:#407BFF;" d="M132.865,259.066l-24.185,4.82c-1.614,0.322-3.183-0.726-3.505-2.34l0,0
					c-0.322-1.614,0.726-3.183,2.34-3.505l24.185-4.82c1.614-0.322,3.183,0.726,3.505,2.34l0,0
					C135.526,257.175,134.479,258.744,132.865,259.066z"/>
			</g>
		</g>
		<g>
			<g>
				
					<rect x="166.656" y="179.139" transform="matrix(0.9908 -0.1356 0.1356 0.9908 -27.6431 28.3385)" style="fill:#407BFF;" width="55.09" height="75.897"/>
				
					<rect x="166.656" y="179.139" transform="matrix(0.9908 -0.1356 0.1356 0.9908 -27.6431 28.3385)" style="opacity:0.7;fill:#FFFFFF;" width="55.09" height="75.897"/>
			</g>
			<g style="opacity:0.4;">
				<path style="fill:#407BFF;" d="M208.057,193.197l-33.622,4.602c-1.63,0.223-3.133-0.918-3.356-2.548l0,0
					c-0.223-1.63,0.918-3.133,2.548-3.356l33.622-4.602c1.63-0.223,3.133,0.918,3.356,2.548l0,0
					C210.829,191.472,209.688,192.974,208.057,193.197z"/>
				<path style="fill:#407BFF;" d="M209.759,205.631l-33.622,4.602c-1.63,0.223-3.133-0.918-3.356-2.548l0,0
					c-0.223-1.631,0.918-3.133,2.548-3.356l33.622-4.601c1.63-0.223,3.133,0.918,3.356,2.548l0,0
					C212.53,203.905,211.389,205.408,209.759,205.631z"/>
				<path style="fill:#407BFF;" d="M187.103,221.398l-9.264,1.268c-1.63,0.223-3.133-0.918-3.356-2.548l0,0
					c-0.223-1.631,0.918-3.133,2.548-3.356l9.264-1.268c1.63-0.223,3.133,0.918,3.356,2.548v0
					C189.874,219.673,188.734,221.175,187.103,221.398z"/>
				<path style="fill:#407BFF;" d="M205.068,218.94l-9.264,1.268c-1.63,0.223-3.133-0.918-3.356-2.548l0,0
					c-0.223-1.63,0.918-3.133,2.548-3.356l9.264-1.268c1.63-0.223,3.133,0.918,3.356,2.548l0,0
					C207.839,217.214,206.698,218.717,205.068,218.94z"/>
				<path style="fill:#407BFF;" d="M213.162,230.499l-33.622,4.602c-1.63,0.223-3.133-0.918-3.356-2.548l0,0
					c-0.223-1.631,0.918-3.133,2.548-3.356l33.622-4.602c1.631-0.223,3.133,0.918,3.356,2.548l0,0
					C215.934,228.773,214.793,230.275,213.162,230.499z"/>
				<path style="fill:#407BFF;" d="M205.675,244.19l-24.433,3.344c-1.63,0.223-3.133-0.918-3.356-2.548l0,0
					c-0.223-1.63,0.918-3.133,2.548-3.356l24.433-3.344c1.63-0.223,3.133,0.918,3.356,2.548v0
					C208.447,242.464,207.306,243.967,205.675,244.19z"/>
			</g>
		</g>
		<g>
			<g>
				
					<rect x="113.152" y="188.989" transform="matrix(0.9962 -0.0868 0.0868 0.9962 -19.1723 13.0729)" style="fill:#407BFF;" width="55.09" height="75.897"/>
				
					<rect x="113.152" y="188.989" transform="matrix(0.9962 -0.0868 0.0868 0.9962 -19.1723 13.0729)" style="opacity:0.8;fill:#FFFFFF;" width="55.09" height="75.897"/>
			</g>
			<g style="opacity:0.4;">
				<path style="fill:#407BFF;" d="M155.709,203.756l-33.807,2.946c-1.639,0.143-3.084-1.07-3.227-2.71l0,0
					c-0.143-1.639,1.07-3.084,2.71-3.227l33.807-2.946c1.639-0.143,3.084,1.07,3.227,2.71l0,0
					C158.561,202.169,157.348,203.613,155.709,203.756z"/>
				<path style="fill:#407BFF;" d="M156.798,216.259l-33.807,2.946c-1.639,0.143-3.084-1.07-3.227-2.71l0,0
					c-0.143-1.639,1.07-3.084,2.71-3.227l33.807-2.947c1.639-0.143,3.084,1.07,3.227,2.71l0,0
					C159.651,214.671,158.438,216.116,156.798,216.259z"/>
				<path style="fill:#407BFF;" d="M157.888,228.761l-33.807,2.946c-1.639,0.143-3.084-1.07-3.227-2.71l0,0
					c-0.143-1.64,1.07-3.084,2.71-3.227l33.807-2.946c1.639-0.143,3.084,1.07,3.227,2.71l0,0
					C160.741,227.173,159.527,228.618,157.888,228.761z"/>
				<path style="fill:#407BFF;" d="M158.978,241.263l-33.807,2.946c-1.64,0.143-3.084-1.07-3.227-2.71l0,0
					c-0.143-1.639,1.07-3.084,2.71-3.227l33.807-2.946c1.639-0.143,3.084,1.07,3.227,2.71l0,0
					C161.83,239.675,160.617,241.12,158.978,241.263z"/>
				<path style="fill:#407BFF;" d="M150.828,254.571l-24.567,2.141c-1.639,0.143-3.084-1.07-3.227-2.71l0,0
					c-0.143-1.639,1.07-3.084,2.71-3.227l24.567-2.141c1.639-0.143,3.084,1.07,3.227,2.71l0,0
					C153.68,252.983,152.467,254.428,150.828,254.571z"/>
			</g>
		</g>
		<g>
			<g>
				
					<rect x="178.502" y="184.336" transform="matrix(0.9988 -0.0482 0.0482 0.9988 -10.4788 10.194)" style="fill:#407BFF;" width="55.09" height="75.897"/>
				
					<rect x="178.502" y="184.336" transform="matrix(0.9988 -0.0482 0.0482 0.9988 -10.4788 10.194)" style="opacity:0.8;fill:#FFFFFF;" width="55.09" height="75.897"/>
			</g>
			<g style="opacity:0.4;">
				<path style="fill:#407BFF;" d="M221.944,199.702l-33.896,1.636c-1.644,0.079-3.041-1.189-3.12-2.833l0,0
					c-0.079-1.644,1.189-3.041,2.832-3.12l33.896-1.636c1.644-0.079,3.04,1.189,3.12,2.833l0,0
					C224.856,198.225,223.587,199.622,221.944,199.702z"/>
				<path style="fill:#407BFF;" d="M222.549,212.237l-33.896,1.636c-1.644,0.079-3.04-1.189-3.12-2.833l0,0
					c-0.079-1.644,1.189-3.041,2.833-3.12l33.896-1.636c1.644-0.079,3.041,1.189,3.12,2.833l0,0
					C225.461,210.76,224.193,212.157,222.549,212.237z"/>
				<path style="fill:#407BFF;" d="M198.598,225.957l-9.34,0.451c-1.644,0.079-3.041-1.189-3.12-2.833l0,0
					c-0.079-1.644,1.189-3.04,2.832-3.12l9.34-0.451c1.644-0.079,3.041,1.189,3.12,2.833l0,0
					C201.51,224.481,200.242,225.878,198.598,225.957z"/>
				<path style="fill:#407BFF;" d="M216.709,225.083l-9.34,0.451c-1.644,0.079-3.041-1.189-3.12-2.833l0,0
					c-0.079-1.644,1.189-3.04,2.833-3.12l9.34-0.451c1.644-0.079,3.041,1.189,3.12,2.833l0,0
					C219.621,223.607,218.353,225.003,216.709,225.083z"/>
				<path style="fill:#407BFF;" d="M223.759,237.307l-33.896,1.636c-1.644,0.079-3.04-1.189-3.12-2.833l0,0
					c-0.079-1.644,1.189-3.041,2.833-3.12l33.896-1.636c1.644-0.079,3.041,1.189,3.12,2.833l0,0
					C226.671,235.831,225.403,237.227,223.759,237.307z"/>
				<path style="fill:#407BFF;" d="M215.101,250.289l-24.632,1.189c-1.644,0.079-3.041-1.189-3.12-2.833l0,0
					c-0.079-1.644,1.189-3.041,2.833-3.12l24.632-1.189c1.644-0.079,3.041,1.189,3.12,2.833l0,0
					C218.012,248.813,216.744,250.21,215.101,250.289z"/>
			</g>
		</g>
		<g>
			<path style="fill:#407BFF;" d="M149.849,242.841l-0.876-3.291c-1.242-4.666-5.686-7.555-10.715-6.967l-47.791,5.589
				c-5.962,0.697-10.682,5.993-10.543,11.829l2.712,113.845c0.095,4.002,3.487,6.858,7.575,6.38l170.989-19.999
				c4.088-0.478,7.325-4.11,7.23-8.112l-2.344-98.414c-0.095-4.002-3.487-6.858-7.575-6.38l-99.291,11.613
				C154.822,249.448,150.935,246.921,149.849,242.841z"/>
			<path style="opacity:0.3;" d="M149.849,242.841l-0.876-3.291c-1.242-4.666-5.686-7.555-10.715-6.967l-47.791,5.589
				c-5.962,0.697-10.682,5.993-10.543,11.829l2.712,113.845c0.095,4.002,3.487,6.858,7.575,6.38l170.989-19.999
				c4.088-0.478,7.325-4.11,7.23-8.112l-2.344-98.414c-0.095-4.002-3.487-6.858-7.575-6.38l-99.291,11.613
				C154.822,249.448,150.935,246.921,149.849,242.841z"/>
		</g>
	</g>
</g>
<g id="Character_1_">
	<g>
		<path style="fill:#FFC3BD;" d="M317.028,188.109c-0.738,3.716-1.53,7.369-2.417,11.023c-0.87,3.652-1.761,7.298-2.731,10.926
			l-1.477,5.435l-0.194,0.695c-0.089,0.299-0.188,0.601-0.305,0.911c-0.235,0.62-0.533,1.269-0.979,1.931
			c-0.436,0.657-1.053,1.349-1.866,1.898c-0.81,0.552-1.818,0.904-2.731,0.986c-1.863,0.145-3.199-0.415-4.288-0.947
			c-1.085-0.575-1.97-1.233-2.779-1.923c-1.609-1.407-2.877-2.887-4.07-4.588l2.781-2.501c1.356,1.031,2.864,2.083,4.296,2.853
			c0.714,0.391,1.431,0.716,2.059,0.892c0.615,0.2,1.15,0.173,1.156,0.071c0.014-0.037-0.098-0.038-0.15-0.032
			c-0.058-0.001-0.046-0.025,0.001-0.167c0.044-0.135,0.117-0.349,0.181-0.615l0.23-1.101l1.167-5.463l2.349-10.92
			c0.761-3.639,1.578-7.287,2.371-10.889L317.028,188.109z"/>
		<path style="fill:#263238;" d="M313.685,176.682c-8.531,6.531-8.188,18.837-8.188,18.837l15.258,3.647
			c0,0,4.682-12.373,2.782-16.904C321.555,177.535,318.486,173.006,313.685,176.682z"/>
		<path style="fill:#FFC3BD;" d="M296.756,212.149l-5.61-5.609l-3.026,8.776c0,0,4.736,2.557,9.269,0.147L296.756,212.149z"/>
		<polygon style="fill:#FFC3BD;" points="283.383,205.674 282.352,212.609 288.12,215.316 291.146,206.54 		"/>
		<polygon style="fill:#FFC3BD;" points="363.122,408.858 354.541,409.697 345.612,389.273 354.193,388.434 		"/>
		<polygon style="fill:#FFC3BD;" points="418.399,378.664 411.954,384.715 398.041,369.423 404.485,363.372 		"/>
		<path style="fill:#263238;" d="M408.979,381.812l4.843-8.726c0.176-0.318,0.54-0.453,0.874-0.325l7.456,2.838
			c0.773,0.294,1.109,1.286,0.69,2.012c-1.741,3.013-2.733,4.38-4.863,8.217c-1.31,2.361-3.862,7.775-5.671,11.035
			c-1.77,3.189-5.129,1.645-4.668,0.125c2.069-6.813,1.68-10.606,1.096-13.613C408.63,382.833,408.721,382.277,408.979,381.812z"/>
		<path style="fill:#263238;" d="M353.401,407.045h10.538c0.383,0,0.73,0.266,0.832,0.641l2.292,8.338
			c0.238,0.865-0.399,1.66-1.286,1.668c-3.714,0.034-5.474,0.017-10.109,0.017c-2.851,0-10.227,0-14.164,0
			c-3.851,0-4.656-3.893-3.063-4.246c7.144-1.581,11.263-3.761,13.467-5.841C352.307,407.247,352.841,407.045,353.401,407.045z"/>
		<polygon style="opacity:0.2;" points="345.616,389.278 350.217,399.806 359.168,399.806 354.201,388.439 		"/>
		<polygon style="opacity:0.2;" points="404.491,363.375 398.043,369.429 405.218,377.308 411.666,371.254 		"/>
		<path style="fill:#263238;" d="M316.261,175.417c0,0-3.857,1.697,9.08,52.896c14.263-1.234,29.004-2.508,35.944-3.109
			c-1.868-14.577-2.666-23.596,1.73-54.223c0,0-7.673-0.987-15.437-0.691c-6.074,0.232-11.046,0.467-16.322,1.412
			C324.301,172.949,316.261,175.417,316.261,175.417z"/>
		<path style="fill:#FFFFFF;" d="M347.577,170.04c0,0,2.039,0.036,4.448,0.036c1.446,2.234-3.258,11.998-11.039,18.393
			c-1.875-5.829-6.248-9.056-6.248-9.056L347.577,170.04z"/>
		<path style="fill:#FFFFFF;" d="M331.261,171.573c0,0-0.909,0.129-3.085,0.625c-1.446,2.234-3.898,11.759,0.369,16.621
			c1.665-6.001,6.193-9.407,6.193-9.407L331.261,171.573z"/>
		<path style="fill:#FFC3BD;" d="M344.371,152.053c-0.575,5.341-0.771,15.052,3.207,18.238c0,0-4.248,4.336-12.839,9.122
			c-6.25-4.318-3.482-7.71-3.482-7.71c5.735-1.905,5.208-6.237,3.835-10.229L344.371,152.053z"/>
		<g>
			<path style="fill:#407BFF;" d="M334.593,179.44c0,0,5.271-5.738,7.991-4.636s0.62,3.069,0.377,4.915
				c-0.242,1.846,1.058,6.772-2.591,5.493C336.721,183.931,334.593,179.44,334.593,179.44z"/>
			<path style="fill:#407BFF;" d="M334.379,179.323c0,0-2.486-4.402-5.176-3.815c-2.69,0.587-1.089,2.134-0.851,3.789
				c0.306,2.128-1.936,6.2,1.308,5.05C332.817,183.228,334.379,179.323,334.379,179.323z"/>
			<g style="opacity:0.2;">
				<path d="M333.012,178.369c0.027,1.23,0.205,2.078,0.503,2.586c0.569-0.907,0.862-1.629,0.862-1.629s-0.483-0.862-1.27-1.769
					C333.03,177.758,333.005,178.022,333.012,178.369z"/>
				<path d="M336.51,177.584c-1.126,0.993-1.915,1.852-1.915,1.852s0.358,0.749,1.029,1.733c0.446-0.378,0.812-1.07,0.974-2.273
					C336.691,178.274,336.643,177.865,336.51,177.584z"/>
			</g>
			<path style="fill:#407BFF;" d="M334.526,181.244c-0.744,0.003-1.204-0.814-1.259-2.747c-0.055-1.932,1.432-0.859,1.432-0.859
				s1.975-1.033,1.641,1.317C336.081,180.782,335.296,181.241,334.526,181.244z"/>
		</g>
		<path style="opacity:0.2;" d="M340.588,155.897l-5.492,5.572c0.328,0.945,0.603,1.907,0.754,2.854
			c2.209-0.517,5.407-2.813,5.442-5.176C341.309,157.969,340.825,156.424,340.588,155.897z"/>
		<path style="fill:#263238;" d="M335.882,134.012c0,0-5.981,8.311-6.97,12.041c-4.081,2.373-4.905-9.334-2.741-16.556
			C332.875,133.675,335.882,134.012,335.882,134.012z"/>
		<path style="fill:#FFC3BD;" d="M349.069,143.708c-2.228,8.53-2.988,12.188-8.221,15.763c-7.87,5.377-17.861,0.775-18.226-8.249
			c-0.329-8.122,3.369-20.708,12.496-22.482C344.11,126.992,351.296,135.178,349.069,143.708z"/>
		<path style="fill:#263238;" d="M353.706,140.305c0,0-4.286,6.943-4.863,9.963c-3.11,2.116-4.424-7.143-3.11-13.005
			C347.163,132.091,353.706,140.305,353.706,140.305z"/>
		<path style="fill:#263238;" d="M351.997,135.468c-1.235,0.939-2.552-2.532-1.313-5.189c-2.373,0.147-5.224-1.26-4.616-3.546
			c-4.666,1.564-6.398-3.186-5.86-6.473c0.65-3.973,4.135-4.85,6.181-3.801c0.041-1.786,4.519-5.523,6.237-2.601
			c3.191-1.126,8.33-0.779,8.228,3.14c2.109,0.066,8.332,2.452,6.039,8.05c2.745,0.163,4.234,3.656,2.706,6.292
			c3.52,2.064,2.215,5.648,0.875,6.903c1.267,2.64-2.587,6.565-4.63,6.093c-1.562,2.396-3.954,4.194-5.518,2.151
			c-3.038,2.214-6.441-0.593-5.671-2.756C351.213,143.164,347.738,137.486,351.997,135.468z"/>
		<path style="fill:#407BFF;" d="M357.081,127.073c2.24,3.738,2.054,7.968-0.416,9.448c-2.469,1.48-6.287-0.351-8.527-4.09
			c-2.24-3.738-2.054-7.968,0.415-9.448C351.023,121.504,354.841,123.335,357.081,127.073z"/>
		<path style="fill:#263238;" d="M336.283,132.967c-0.137,1.073-3.087,0.795-3.937-1.093c-1.216,1.277-4.085,1.941-5.067,0.55
			c-1.656,3.115-4.983,2.3-5.854,0.803c-0.872-1.497-1.431-4.257,0.293-4.802c-1.005-0.866-0.701-4.914,1.921-4.406
			c1.101-2.157,4.116-4.609,6.314-2.702c1.193-1.042,5.976-3.08,7.94,0.737c1.598-1.32,4.423-0.425,5.102,1.601
			c3.116-0.815,4.463,1.546,4.451,2.822c2.213,0.605,2.359,4.424,0.969,5.241c0.523,1.929,0.246,3.997-1.786,3.827
			c-0.391,2.594-3.87,2.997-4.693,1.582C339.724,138.609,335.11,136.09,336.283,132.967z"/>
		<path style="fill:#263238;" d="M331.021,125.622c2.532-3.505,11.756-4.958,19.746,0.292c7.201,4.731,6.734,15.712,1.01,15.128
			c-5.724-0.584-11.39-7.301-11.39-7.301L331.021,125.622z"/>
		<path style="fill:#FFC3BD;" d="M349.773,151.409c-0.839,1.624-2.35,2.709-3.788,3.141c-2.163,0.651-3.29-1.273-2.726-3.338
			c0.507-1.859,2.245-4.438,4.434-4.185C349.85,147.277,350.733,149.553,349.773,151.409z"/>
		<path style="fill:#407BFF;" d="M325.341,228.313c0,0-12.161,53.797-4.043,91.724c5.437,25.402,25.046,76.716,25.046,76.716
			l15.331-0.394c0,0-14.844-53.851-17.913-75.028c-5.25-36.226,7.899-95.295,7.899-95.295L325.341,228.313z"/>
		<path style="opacity:0.2;" d="M339.364,239.176l7.666,12.09c-1.95,12.537-3.891,28.218-4.386,43.306
			C331.863,275.273,336.967,249.394,339.364,239.176z"/>
		<polygon style="fill:#263238;" points="344.183,397.548 363.122,397.065 362.026,391.246 342.703,392.162 		"/>
		<path style="fill:#407BFF;" d="M333.2,227.741c0,0,7.134,57.052,22.599,88.2c12.491,25.158,45.823,60.971,45.823,60.971
			l8.522-8.779c0,0-22.514-38.922-31.797-55.634c-22.763-40.978-4.16-72.249-17.062-87.294L333.2,227.741z"/>
		<polygon style="fill:#263238;" points="400.759,378.087 411.757,367.366 408.108,362.402 396.445,374.043 		"/>
		<g>
			<path style="fill:#407BFF;" d="M361.641,223.049l1.899,3.077c0.147,0.239-0.126,0.519-0.542,0.555l-37.695,3.26
				c-0.324,0.028-0.606-0.107-0.644-0.309l-0.603-3.189c-0.042-0.221,0.223-0.434,0.577-0.465l36.398-3.148
				C361.3,222.806,361.546,222.895,361.641,223.049z"/>
			<path style="opacity:0.5;fill:#FFFFFF;" d="M361.641,223.049l1.899,3.077c0.147,0.239-0.126,0.519-0.542,0.555l-37.695,3.26
				c-0.324,0.028-0.606-0.107-0.644-0.309l-0.603-3.189c-0.042-0.221,0.223-0.434,0.577-0.465l36.398-3.148
				C361.3,222.806,361.546,222.895,361.641,223.049z"/>
		</g>
		<path style="fill:#407BFF;" d="M357.104,227.541l0.975-0.084c0.194-0.017,0.333-0.13,0.309-0.251l-0.819-4.141
			c-0.024-0.121-0.202-0.207-0.397-0.19l-0.975,0.084c-0.194,0.017-0.333,0.13-0.309,0.251l0.819,4.141
			C356.732,227.473,356.91,227.558,357.104,227.541z"/>
		<path style="fill:#407BFF;" d="M328.073,230.052l0.975-0.084c0.194-0.017,0.333-0.13,0.309-0.251l-0.819-4.141
			c-0.024-0.121-0.202-0.207-0.396-0.19l-0.975,0.084c-0.194,0.017-0.333,0.13-0.309,0.251l0.819,4.141
			C327.7,229.984,327.878,230.069,328.073,230.052z"/>
		<path style="fill:#407BFF;" d="M342.588,228.797l0.975-0.084c0.194-0.017,0.333-0.13,0.309-0.251l-0.819-4.141
			c-0.024-0.121-0.202-0.207-0.396-0.19l-0.975,0.084c-0.194,0.017-0.333,0.13-0.309,0.251l0.819,4.141
			C342.216,228.728,342.394,228.814,342.588,228.797z"/>
		<path style="fill:#263238;" d="M334.628,143.416c-0.138,0.703-0.623,1.2-1.082,1.109c-0.46-0.09-0.72-0.734-0.582-1.436
			c0.138-0.703,0.623-1.2,1.082-1.109C334.506,142.07,334.767,142.713,334.628,143.416z"/>
		<path style="fill:#263238;" d="M326.682,141.854c-0.138,0.703-0.623,1.2-1.082,1.109c-0.46-0.09-0.72-0.734-0.582-1.437
			c0.138-0.703,0.623-1.2,1.082-1.109C326.559,140.508,326.82,141.151,326.682,141.854z"/>
		<path style="fill:#263238;" d="M326.295,140.496l-1.593-0.819C324.702,139.677,325.309,141.167,326.295,140.496z"/>
		<path style="fill:#ED847E;" d="M329.414,143.606c0,0-1.788,2.792-3.388,3.994c0.758,1.049,2.414,0.963,2.414,0.963
			L329.414,143.606z"/>
		<path style="fill:#263238;" d="M331.69,151.915c2.49,0,3.936-1.453,4.006-1.524c0.067-0.069,0.066-0.18-0.003-0.247
			c-0.068-0.067-0.179-0.066-0.247,0.003c-0.019,0.019-1.908,1.905-5.001,1.295c-0.099-0.021-0.187,0.044-0.205,0.137
			c-0.019,0.095,0.043,0.187,0.138,0.205C330.841,151.875,331.28,151.915,331.69,151.915z"/>
		<path style="fill:#263238;" d="M339.402,140.69c0.062,0,0.124-0.016,0.181-0.051c0.165-0.1,0.218-0.315,0.118-0.48
			c-1.184-1.96-3.088-2.046-3.168-2.048c-0.204,0.008-0.353,0.144-0.36,0.336c-0.008,0.193,0.143,0.355,0.335,0.363
			c0.066,0.003,1.612,0.086,2.595,1.712C339.168,140.629,339.283,140.69,339.402,140.69z"/>
		<path style="fill:#263238;" d="M324.475,137.874c0.057,0,0.116-0.014,0.17-0.045c1.673-0.934,3.087-0.211,3.101-0.204
			c0.172,0.09,0.383,0.024,0.472-0.147c0.09-0.171,0.024-0.382-0.147-0.472c-0.071-0.038-1.769-0.905-3.767,0.212
			c-0.169,0.094-0.229,0.307-0.135,0.476C324.234,137.809,324.353,137.874,324.475,137.874z"/>
		<path style="fill:#FFC3BD;" d="M364.542,179.162c0.677,0.662,1.147,1.175,1.681,1.767c0.51,0.58,1,1.166,1.477,1.761
			c0.955,1.188,1.857,2.407,2.713,3.658c1.68,2.521,3.186,5.157,4.473,7.908c1.304,2.743,2.313,5.629,3.117,8.569
			c0.384,1.476,0.734,2.962,0.985,4.47c0.346,1.583,0.481,4.146-0.683,6.321c-0.561,1.087-1.383,1.993-2.236,2.662
			c-0.858,0.675-1.749,1.143-2.612,1.5c-1.732,0.698-3.377,0.996-4.968,1.182c-3.177,0.332-6.18,0.213-9.127-0.119
			c-5.891-0.667-11.513-1.912-17.101-3.634l0.915-3.627c2.72,0.448,5.522,0.871,8.288,1.156c2.768,0.32,5.538,0.549,8.27,0.609
			c2.722,0.038,5.439,0.004,7.904-0.433c1.219-0.215,2.378-0.538,3.26-0.973c0.897-0.441,1.365-0.947,1.474-1.306
			c0.071-0.191,0.12-0.404,0.123-0.725c0.002-0.158-0.018-0.344-0.038-0.537c-0.043-0.206-0.065-0.388-0.157-0.754
			c-0.28-1.287-0.65-2.556-1.044-3.814c-0.805-2.516-1.863-4.947-3.041-7.322c-1.179-2.375-2.558-4.66-4.083-6.836
			c-0.749-1.097-1.537-2.168-2.363-3.197c-0.411-0.516-0.833-1.021-1.261-1.51c-0.404-0.476-0.891-1.016-1.222-1.358
			L364.542,179.162z"/>
		<path style="fill:#FFC3BD;" d="M345.448,212.131l-7.01-3.714l-0.314,9.278c0,0,4.951,0.313,7.857-1.965L345.448,212.131z"/>
		<g>
			<g>
				<g>
					<polygon style="fill:#407BFF;" points="333.167,262 338.953,199.189 326.602,189.732 288.898,186.258 282.352,257.319 					"/>
					<polygon style="opacity:0.8;fill:#FFFFFF;" points="333.167,262 338.953,199.189 326.602,189.732 288.898,186.258 
						282.352,257.319 					"/>
				</g>
				<polygon style="fill:#407BFF;" points="338.953,199.189 326.602,189.732 329.84,201.051 				"/>
			</g>
			<g>
				<circle style="fill:#407BFF;" cx="286.77" cy="252.901" r="15.398"/>
				
					<ellipse transform="matrix(0.7847 -0.6199 0.6199 0.7847 -95.0259 232.2184)" style="fill:#FFFFFF;" cx="286.77" cy="252.901" rx="12.28" ry="12.28"/>
				<polygon style="fill:#407BFF;" points="294.358,251.822 288.94,251.187 289.576,245.768 285.691,245.313 285.056,250.731 
					279.637,250.095 279.182,253.979 284.6,254.615 283.964,260.033 287.848,260.489 288.484,255.071 293.902,255.706 				"/>
			</g>
			<path style="opacity:0.4;fill:#407BFF;" d="M329.731,212.207L329.731,212.207c-0.213,2.312-2.259,4.013-4.571,3.8l-27.501-2.53
				c-2.312-0.213-4.013-2.259-3.801-4.57l0,0c0.213-2.312,2.259-4.013,4.571-3.801l27.501,2.53
				C328.242,207.849,329.944,209.895,329.731,212.207z"/>
			<path style="opacity:0.4;fill:#407BFF;" d="M320.363,223.556L320.363,223.556c-0.213,2.312-2.259,4.013-4.57,3.8l-19.219-1.768
				c-2.311-0.213-4.013-2.259-3.8-4.571l0,0c0.213-2.312,2.259-4.013,4.57-3.8l19.219,1.768
				C318.874,219.198,320.575,221.244,320.363,223.556z"/>
		</g>
		<polygon style="fill:#FFC3BD;" points="334.165,208.971 335.217,215.903 338.124,217.695 338.438,208.417 		"/>
		<path style="fill:#263238;" d="M363.015,170.982c4.406,0.779,10.581,13.418,10.581,13.418l-11.108,10.046
			c0,0-8.835-9.636-8.363-15.378C354.525,174.193,357.402,169.989,363.015,170.982z"/>
		<path style="fill:#407BFF;" d="M407.279,386.503c0.115,0,0.229-0.02,0.343-0.058c1.054-0.355,1.746-2.306,2.064-3.437
			c0.019-0.067-0.004-0.139-0.058-0.183c-0.054-0.044-0.129-0.051-0.191-0.019c-0.321,0.168-3.137,1.674-3.228,2.785
			c-0.014,0.17,0.027,0.415,0.3,0.622C406.764,386.406,407.022,386.503,407.279,386.503z M409.229,383.319
			c-0.489,1.56-1.12,2.593-1.719,2.795c-0.259,0.087-0.516,0.027-0.792-0.18c-0.159-0.12-0.168-0.236-0.162-0.314
			C406.613,384.938,408.263,383.866,409.229,383.319z"/>
		<path style="fill:#407BFF;" d="M406.844,383.759c0.999,0,2.225-0.319,2.764-0.648c0.053-0.032,0.085-0.091,0.084-0.153
			c-0.001-0.062-0.036-0.119-0.09-0.149c-0.094-0.052-2.324-1.278-3.524-0.852c-0.313,0.11-0.534,0.32-0.657,0.622
			c-0.191,0.471,0.018,0.743,0.16,0.863C405.847,383.669,406.314,383.759,406.844,383.759z M409.132,382.96
			c-0.954,0.407-2.803,0.657-3.326,0.216c-0.087-0.074-0.173-0.193-0.062-0.466c0.084-0.208,0.232-0.347,0.449-0.423
			C407.012,381.995,408.498,382.648,409.132,382.96z"/>
		<path style="fill:#407BFF;" d="M348.726,408.75c1.012,0,2.113-0.196,2.877-0.365c0.073-0.016,0.128-0.077,0.136-0.151
			c0.008-0.074-0.032-0.146-0.1-0.178c-0.433-0.204-4.256-1.97-5.219-1.319c-0.123,0.083-0.266,0.244-0.249,0.541
			c0.024,0.411,0.199,0.743,0.521,0.986C347.169,408.625,347.919,408.75,348.726,408.75z M351.001,408.15
			c-1.135,0.212-3.235,0.489-4.099-0.165c-0.24-0.182-0.365-0.419-0.383-0.727c-0.008-0.142,0.047-0.199,0.096-0.232
			C347.154,406.661,349.414,407.452,351.001,408.15z"/>
		<path style="fill:#407BFF;" d="M351.565,408.389c0.04,0,0.081-0.014,0.113-0.042c0.05-0.042,0.072-0.109,0.057-0.173
			c-0.036-0.161-0.904-3.931-2.979-3.69c-0.52,0.062-0.662,0.32-0.689,0.525c-0.13,0.96,2.281,2.895,3.432,3.366
			C351.52,408.384,351.542,408.389,351.565,408.389z M348.944,404.823c1.326,0,2.098,2.194,2.354,3.073
			c-1.245-0.652-2.968-2.225-2.885-2.839c0.006-0.045,0.025-0.182,0.385-0.225C348.847,404.826,348.896,404.823,348.944,404.823z"/>
		<path style="fill:#263238;" d="M334.242,142.058l-1.593-0.819C332.649,141.24,333.256,142.729,334.242,142.058z"/>
	</g>
</g>
</svg>
